<svg xmlns="http://www.w3.org/2000/svg" viewBox="0 0 800 600" width="800" height="600">
  <defs>
    <linearGradient id="bg" x1="0" y1="0" x2="1" y2="1">
      <stop offset="0" stop-color="#f6f1e7"/>
      <stop offset="1" stop-color="#f3ede4"/>
    </linearGradient>
    <radialGradient id="glow" cx="70%" cy="20%" r="70%">
      <stop offset="0" stop-color="#ffffff" stop-opacity="0.9"/>
      <stop offset="1" stop-color="#ffffff" stop-opacity="0"/>
    </radialGradient>
  </defs>

  <rect width="800" height="600" fill="url(#bg)"/>
  <rect width="800" height="600" fill="url(#glow)"/>
  <circle cx="160" cy="150" r="150" fill="#b07a3a" opacity="0.10"/>
  <circle cx="650" cy="460" r="190" fill="#201c18" opacity="0.05"/>

  <g fill="none" stroke="#8b5b2a" stroke-width="14" stroke-linecap="round" stroke-linejoin="round" opacity="0.85">
    <path d="M400 190c28 0 44-26 30-50-10-17-36-17-46 0-14 24 2 50 16 50z"/>
    <path d="M400 190v40"/>
    <path d="M240 270l160-40 160 40"/>
    <path d="M260 280l80 110h120l80-110"/>
    <path d="M340 390l-30 130"/>
    <path d="M460 390l30 130"/>
    <path d="M310 520h180"/>
  </g>
</svg>

