<svg xmlns="http://www.w3.org/2000/svg" viewBox="0 0 800 600" width="800" height="600">
  <defs>
    <linearGradient id="bg" x1="0" y1="0" x2="1" y2="1">
      <stop offset="0" stop-color="#f6f1e7"/>
      <stop offset="1" stop-color="#efe5d7"/>
    </linearGradient>
    <radialGradient id="glow" cx="30%" cy="20%" r="70%">
      <stop offset="0" stop-color="#ffffff" stop-opacity="0.9"/>
      <stop offset="1" stop-color="#ffffff" stop-opacity="0"/>
    </radialGradient>
  </defs>

  <rect width="800" height="600" fill="url(#bg)"/>
  <rect width="800" height="600" fill="url(#glow)"/>
  <circle cx="650" cy="130" r="140" fill="#b07a3a" opacity="0.10"/>
  <circle cx="110" cy="480" r="170" fill="#201c18" opacity="0.05"/>

  <g fill="none" stroke="#8b5b2a" stroke-width="14" stroke-linecap="round" stroke-linejoin="round" opacity="0.85">
    <rect x="210" y="150" width="380" height="300" rx="26"/>
    <rect x="255" y="195" width="290" height="210" rx="18" opacity="0.75"/>
    <path d="M330 150c20 26 36 26 56 0"/>
    <path d="M414 150c20 26 36 26 56 0"/>
    <path d="M310 450c26-20 26-36 0-56"/>
    <path d="M490 450c-26-20-26-36 0-56"/>
  </g>
</svg>

